<?xml version="1.0" encoding="UTF-8"?>
<svg width="107px" height="40px" viewBox="0 0 107 40" version="1.1" xmlns="http://www.w3.org/2000/svg" xmlns:xlink="http://www.w3.org/1999/xlink">
    <!-- Generator: Sketch 52.2 (67145) - http://www.bohemiancoding.com/sketch -->
    <title>yodu logo</title>
    <desc>Created with Sketch.</desc>
    <defs>
        <path d="M20.4827586,34 C27.7319865,34 34,27.7319865 34,20.4827586 C34,12.2680135 27.7319865,6 20.4827586,6 C15.8456486,6 11.2085386,6 6.57142857,6 L6.57142857,6 C6.25583729,6 6,6.25583729 6,6.57142857 C6,11.2085386 6,15.8456486 6,20.4827586 C6,27.7319865 12.2680135,34 20.4827586,34 Z" id="path-1"></path>
    </defs>
    <g id="yodu-logo" stroke="none" stroke-width="1" fill="none" fill-rule="evenodd">
        <g id="Group-3" transform="translate(1.000000, 0.000000)">
            <circle id="Oval" stroke="#CCCCCC" stroke-width="0.5" cx="20" cy="20" r="19.75"></circle>
            <rect id="Rectangle" stroke="#CCCCCC" stroke-width="0.5" x="6.25" y="6.25" width="27.5" height="27.5" rx="0.571428571"></rect>
            <g id="Oval">
                <use fill="#FFFFFF" xlink:href="#path-1"></use>
                <use fill="#333333" xlink:href="#path-1"></use>
            </g>
            <circle id="Oval" fill="#FFFFFF" cx="20" cy="20" r="10"></circle>
            <g id="Group-4" transform="translate(5.571429, 5.714286)" stroke="#333333" stroke-linecap="round" stroke-width="1.71428571">
                <polyline id="Line" points="11 10.8571429 14.418732 14.3073759 17.8571429 10.8571429"></polyline>
                <path d="M14.4285714,14.2857143 L14.4285714,19.1428571" id="Line-2"></path>
            </g>
            <path d="M67.1350836,21.093835 L67.1350836,18.1941305 C67.1350836,17.6418458 66.6873684,17.1941305 66.1350836,17.1941305 L53.040309,17.1941305 C52.4880242,17.1941305 52.040309,17.6418458 52.040309,18.1941305 L52.040309,21.093835 L67.1350836,21.093835 Z M52.040309,26.3862912 L67.1350836,26.3862912 L67.1350836,22.4246866 L52.040309,22.4246866 L52.040309,26.3862912 Z M70.3708795,11.561224 L54.2149608,11.561224 C53.5650101,13.0158757 52.7912592,14.4705274 51.9556082,15.8323289 L66.1121844,15.8323289 C67.3824393,15.8323289 68.4121844,16.862074 68.4121844,18.1323289 L68.4121844,31.7715974 C68.4121844,32.8857987 68.1645841,33.3809993 67.2979831,33.6285996 C66.8771584,33.7592003 65.9698739,33.7592003 64.2903598,33.3359009 C64.0024491,33.2633368 63.3320463,33.0890636 62.2791515,32.8130812 L62.2791545,32.81307 C61.9159024,32.7178552 61.6625928,32.3895914 61.6625928,32.0140679 L61.6625928,32.0140679 C61.6625928,31.7458316 61.8800413,31.5283831 62.1482776,31.5283831 C62.1914672,31.5283831 62.2344639,31.5341439 62.2761302,31.5455133 C64.561621,32.1691711 65.8848071,32.4714916 66.2456819,32.4524982 C66.8027825,32.4524982 66.9575327,32.266798 66.9575327,31.7406474 L66.9575327,27.7480928 L51.8627581,27.7480928 L51.8627581,33.2726742 C51.8627581,33.6743651 51.5371232,34 51.1354322,34 L51.1354322,34 C50.7337413,34 50.4081064,33.6743651 50.4081064,33.2726742 L50.4081064,18.0607315 C49.0732686,19.8740961 47.5334826,21.5030072 45.8221038,22.897432 C45.6680113,23.022986 45.4653702,23.1812377 45.2141807,23.3721869 L45.2141683,23.3721707 C44.8849976,23.6223997 44.4166114,23.5660376 44.1561992,23.2448625 L44.1561992,23.2448625 C43.9128657,22.9447513 43.9588932,22.5042024 44.2590044,22.260869 C44.2671538,22.2542614 44.2754508,22.247838 44.2838892,22.2416035 C44.5330186,22.0574858 44.7337998,21.9046213 44.8862064,21.7829743 C48.2356674,19.1095197 50.8368436,15.4720842 52.667459,11.561224 L45.0228002,11.561224 C44.6296558,11.561224 44.3109493,11.2425175 44.3109493,10.8493732 L44.3109493,10.8493732 C44.3109493,10.4562288 44.6296558,10.1375223 45.0228002,10.1375223 L53.2864597,10.1375223 C53.7257825,9.12014338 54.0960082,8.08549018 54.4229476,7.04646803 C54.629548,6.23781782 55.0664206,6.03064924 55.5120071,6.20861176 C55.9575935,6.38657428 56.0169341,6.81268285 55.8706693,7.35014373 C55.5590086,8.29607777 55.2216968,9.22520397 54.8339615,10.1375223 L70.3708795,10.1375223 C70.7640239,10.1375223 71.0827304,10.4562288 71.0827304,10.8493732 L71.0827304,10.8493732 C71.0827304,11.2425175 70.7640239,11.561224 70.3708795,11.561224 Z M78.4185824,11.694623 L78.4185824,17.7821812 C78.4185824,21.997759 78.1203553,27.9032904 76.1877071,32.514609 C76.0934538,32.7394985 75.960447,33.0277823 75.7886867,33.3794604 L75.788684,33.379459 C75.6182956,33.7283283 75.197354,33.8730156 74.8484847,33.7026272 C74.8310932,33.6941331 74.8140598,33.6849244 74.7974282,33.6750246 L74.7974282,33.6750246 C74.4352684,33.4594533 74.3015256,33.0004905 74.491191,32.6241161 C74.6175147,32.373422 74.7174681,32.1651977 74.7910446,31.9994401 C76.7592306,27.5653961 76.9639307,21.9189569 76.9639307,17.7821812 L76.9639307,11.3018714 C76.9639307,10.1973019 77.8593612,9.30187137 78.9639307,9.30187137 L89.1582449,9.30187137 C88.9053839,8.69889529 88.5791786,7.99812669 88.2334052,7.33784749 C88.1659301,7.20899906 88.0809823,7.05405671 87.9785615,6.87302042 L87.9785382,6.87303357 C87.822181,6.59666051 87.919473,6.24586327 88.1958461,6.089506 C88.2358316,6.06688429 88.2783843,6.04913659 88.3225939,6.03664258 L88.3225939,6.03664258 C88.7455254,5.91711846 89.195966,6.09693931 89.4203108,6.47486325 C89.5126768,6.63039876 89.5902217,6.76361771 89.6529723,6.8745041 C90.1303023,7.71799298 90.5788254,8.60852631 90.8604968,9.30187137 L101.213284,9.30187137 C101.597882,9.30187137 101.90966,9.61364944 101.90966,9.99824718 L101.90966,9.99824718 C101.90966,10.3828449 101.597882,10.694623 101.213284,10.694623 L79.4185824,10.694623 C78.8662977,10.694623 78.4185824,11.1423382 78.4185824,11.694623 Z M95.1935022,15.9561291 L86.5274922,15.9561291 L86.5274922,18.9486837 C86.5274922,19.5009685 86.9752074,19.9486837 87.5274922,19.9486837 L94.1935022,19.9486837 C94.745787,19.9486837 95.1935022,19.5009685 95.1935022,18.9486837 L95.1935022,15.9561291 Z M94.6658393,21.2176352 L87.1214759,21.2176352 C86.0169064,21.2176352 85.1214759,20.3222047 85.1214759,19.2176352 L85.1214759,15.9561291 L80.3242203,15.9561291 C79.9652624,15.9561291 79.6742696,15.6651362 79.6742696,15.3061783 L79.6742696,15.3061783 C79.6742696,14.9472204 79.9652624,14.6562276 80.3242203,14.6562276 L85.1214759,14.6562276 L85.1214759,12.3040248 C85.1214759,11.9108805 85.4401824,11.592174 85.8333267,11.592174 L85.8333267,11.592174 C86.2264711,11.592174 86.5451775,11.9108805 86.5451775,12.3040248 L86.5451775,14.6562276 L95.2111876,14.6562276 L95.2111876,12.3194999 C95.2111876,11.9178089 95.5368225,11.592174 95.9385134,11.592174 L95.9385134,11.592174 C96.3402044,11.592174 96.6658393,11.9178089 96.6658393,12.3194999 L96.6658393,14.6562276 L101.339295,14.6562276 C101.698253,14.6562276 101.989245,14.9472204 101.989245,15.3061783 L101.989245,15.3061783 C101.989245,15.6651362 101.698253,15.9561291 101.339295,15.9561291 L96.6658393,15.9561291 L96.6658393,19.2176352 C96.6658393,20.3222047 95.7704088,21.2176352 94.6658393,21.2176352 Z M96.3478526,24.9625895 C96.1255908,24.9625895 95.9132742,24.9625895 95.7109028,24.9625895 C93.3753825,24.9625895 89.8721022,24.9625895 85.2010617,24.9625895 C86.5628633,26.8814917 88.2253223,28.3140192 90.7013252,29.5210706 C92.7170963,28.6303811 94.7787795,27.215747 95.7109028,26.3862912 C95.9786734,26.1480137 96.2686434,25.8365093 96.5808127,25.4517779 L96.5809413,25.4518822 C96.6853933,25.3231509 96.665711,25.1341184 96.5369797,25.0296664 C96.4834993,24.9862727 96.4167233,24.9625895 96.3478526,24.9625895 Z M98.2017547,25.7763513 C97.0931089,27.2418301 94.8440111,28.9276749 92.3416771,30.3478958 C94.6512286,31.2861511 97.2599871,31.9626003 100.0662,32.4063156 C100.456091,32.4679647 100.947071,32.5411619 101.53914,32.6259071 L101.53914,32.62591 C101.832691,32.6679272 102.0366,32.9399593 101.994583,33.2335108 C101.987416,33.283581 101.97321,33.3323874 101.952387,33.3784827 L101.952387,33.3784827 C101.777495,33.76563 101.366946,33.9897246 100.946723,33.9274163 C100.258494,33.8253761 99.7220599,33.7397653 99.337421,33.67059 C96.2152567,33.1090857 93.288352,32.2598337 90.7013252,31.0906966 C87.6726494,32.3616588 84.2423147,33.1364542 80.7612596,33.6421607 C80.5533775,33.6723605 80.2808023,33.7098477 79.943534,33.7546224 L79.9435297,33.7545894 C79.5273327,33.8098424 79.1209425,33.5992264 78.9261299,33.2273113 L78.9093615,33.1952991 C78.7802654,32.9488429 78.8754046,32.6443975 79.1218608,32.5153014 C79.1766747,32.4865894 79.2363093,32.4682218 79.2977786,32.4611182 L80.2754598,32.34815 C80.2933562,32.3460818 80.3111934,32.3435305 80.3289519,32.3404986 C84.3923499,31.6467742 87.3339737,30.9619399 89.1538234,30.2859957 C87.2352809,29.2116119 85.5704501,27.9046591 84.2816534,26.3826119 C84.221625,26.3117194 84.1534838,26.2279849 84.0772299,26.1314083 L84.0772263,26.1314112 C83.8376527,25.8279882 83.8894128,25.3878025 84.1928358,25.1482289 C84.243781,25.1080041 84.3000736,25.0750608 84.3600955,25.0503459 L84.5732181,24.9625895 L81.778872,24.9625895 C81.4199141,24.9625895 81.1289213,24.6715967 81.1289213,24.3126388 L81.1289213,24.3126388 C81.1289213,23.9536809 81.4199141,23.662688 81.778872,23.662688 L97.2661159,23.662688 L97.2661159,23.662688 C97.9620561,23.662688 98.5262272,24.2268591 98.5262272,24.9227993 C98.5262272,25.1896733 98.4414982,25.4496565 98.2842505,25.6652832 C98.2567731,25.7029462 98.229277,25.7399707 98.2017547,25.7763513 Z" id="有度" fill="#444444"></path>
        </g>
    </g>
</svg>