<?xml version="1.0" encoding="UTF-8"?>
<svg width="107px" height="40px" viewBox="0 0 107 40" version="1.1" xmlns="http://www.w3.org/2000/svg" xmlns:xlink="http://www.w3.org/1999/xlink">
    <!-- Generator: Sketch 46.2 (44496) - http://www.bohemiancoding.com/sketch -->
    <title>yodu logo</title>
    <desc>Created with Sketch.</desc>
    <defs>
        <path d="M20.4827586,36 C27.7319865,36 34,29.7319865 34,22.4827586 C34,14.2680135 27.7319865,8 20.4827586,8 C15.8456486,8 11.2085386,8 6.57142857,8 L6.57142857,8 C6.25583729,8 6,8.25583729 6,8.57142857 C6,13.2085386 6,17.8456486 6,22.4827586 C6,29.7319865 12.2680135,36 20.4827586,36 Z" id="path-1"></path>
    </defs>
    <g id="有度logo" stroke="none" stroke-width="1" fill="none" fill-rule="evenodd">
        <g id="yodu-logo">
            <g id="Group-3" transform="translate(1.000000, -2.000000)">
                <circle id="Oval" stroke="#CCCCCC" stroke-width="0.5" cx="20" cy="22" r="19.75"></circle>
                <rect id="Rectangle" stroke="#CCCCCC" stroke-width="0.5" x="6.25" y="8.25" width="27.5" height="27.5" rx="0.571428571"></rect>
                <g id="Oval">
                    <use fill="#FFFFFF" xlink:href="#path-1"></use>
                    <use fill="#333333" xlink:href="#path-1"></use>
                </g>
                <circle id="Oval" fill="#FFFFFF" cx="20" cy="22" r="10"></circle>
                <g id="Group-4" transform="translate(5.571429, 7.714286)" stroke-linecap="round" stroke-width="1.71428571" stroke="#333333">
                    <polyline id="Line" points="11 10.8571429 14.418732 14.3073759 17.8571429 10.8571429"></polyline>
                    <path d="M14.4285714,14.2857143 L14.4285714,19.1428571" id="Line-2"></path>
                </g>
                <path d="M53.0360015,13.572 L44.6080015,13.572 C44.3093334,13.572 44.1600015,13.3760019 44.1600015,12.984 C44.1600015,12.5733313 44.3093334,12.368 44.6080015,12.368 L53.8760015,12.368 C54.3240038,11.6773299 54.8093322,10.7066729 55.3320015,9.45599998 C55.5186691,9.00799774 55.7100005,8.78399998 55.9060015,8.78399998 C56.1020025,8.78399998 56.2840007,8.83066618 56.4520015,8.92399998 C56.6200024,9.01733378 56.7040015,9.15733238 56.7040015,9.34399998 C56.7040015,9.53066758 56.5360032,9.95999662 56.2000015,10.632 C56.0320007,10.9493349 55.8640024,11.2526652 55.6960015,11.542 C55.5280007,11.8313348 55.3693356,12.1066653 55.2200015,12.368 L69.3320015,12.368 C69.6680032,12.368 69.8360015,12.5733313 69.8360015,12.984 C69.8360015,13.3760019 69.6680032,13.572 69.3320015,13.572 L54.4360015,13.572 C54.0626663,14.113336 53.6426705,14.6733304 53.1760015,15.252 C52.7093325,15.8306695 52.1866711,16.4279969 51.6080015,17.044 L65.6080015,17.044 C66.2800049,17.044 66.7560001,17.1839986 67.0360015,17.464 C67.3160029,17.7440014 67.4560015,18.2199966 67.4560015,18.892 L67.4560015,32.248 C67.4560015,33.1440045 67.241337,33.7926646 66.8120015,34.194 C66.382666,34.5953353 65.7666722,34.796 64.9640015,34.796 C64.1799976,34.796 63.3120063,34.6840011 62.3600015,34.46 C61.4266635,34.2733324 60.9133353,34.1240005 60.8200015,34.012 C60.7266677,33.9186662 60.6800015,33.7880008 60.6800015,33.62 C60.6800015,33.2466648 60.8666663,33.06 61.2400015,33.06 C61.2960018,33.06 61.3986674,33.0786665 61.5480015,33.116 C62.985342,33.4893352 63.993332,33.676 64.5720015,33.676 C65.1880046,33.676 65.6173336,33.5593345 65.8600015,33.326 C66.1026694,33.0926655 66.2240015,32.6586698 66.2240015,32.024 L66.2240015,28.832 L50.2920015,28.832 L50.2920015,34.628 C50.2920015,35.0200019 50.0866702,35.216 49.6760015,35.216 C49.2653328,35.216 49.0600015,35.0200019 49.0600015,34.628 L49.0600015,19.508 C48.630666,19.8813352 48.201337,20.2359983 47.7720015,20.572 C47.342666,20.9080017 46.9040038,21.2346651 46.4560015,21.552 C45.6159973,22.1866698 45.0373364,22.5786659 44.7200015,22.728 C44.4773336,22.8586673 44.2626691,22.924 44.0760015,22.924 C43.9266674,22.924 43.8053353,22.8493341 43.7120015,22.7 C43.6373345,22.5693327 43.6000015,22.4200008 43.6000015,22.252 C43.6000015,22.0653324 43.8613322,21.8226681 44.3840015,21.524 C47.7440183,19.5826569 50.6279895,16.9320168 53.0360015,13.572 Z M66.2240015,22.392 L66.2240015,19.2 C66.2240015,18.9013318 66.1353357,18.6586676 65.9580015,18.472 C65.7806673,18.2853324 65.5613362,18.192 65.3000015,18.192 L51.3840015,18.192 C50.9919996,18.192 50.7120024,18.2573327 50.5440015,18.388 C50.3760007,18.5186673 50.2920015,18.7613315 50.2920015,19.116 L50.2920015,22.392 L66.2240015,22.392 Z M66.2240015,27.768 L66.2240015,23.456 L50.2920015,23.456 L50.2920015,27.768 L66.2240015,27.768 Z M87.1680015,11.024 L97.1920015,11.024 C97.3973359,10.9866665 97.5466677,11.028666 97.6400015,11.15 C97.7333353,11.2713339 97.7800015,11.4066659 97.7800015,11.556 C97.7800015,11.7053341 97.7286687,11.840666 97.6260015,11.962 C97.5233343,12.0833339 97.3786691,12.1253335 97.1920015,12.088 L76.3040015,12.088 C76.0053334,12.088 75.7953355,12.1533327 75.6740015,12.284 C75.5526676,12.4146673 75.4920015,12.6573315 75.4920015,13.012 L75.4920015,23.372 C75.4920015,25.5560109 75.3426697,27.3993258 75.0440015,28.902 C74.7453334,30.4046742 74.3533373,31.7066611 73.8680015,32.808 C73.3826658,33.9280056 73.0746688,34.5906656 72.9440015,34.796 C72.7946674,35.0200011 72.6173359,35.132 72.4120015,35.132 C72.0386663,35.132 71.8520015,34.9826681 71.8520015,34.684 C71.8520015,34.5719994 71.908001,34.3853346 72.0200015,34.124 C72.4866705,33.1719952 72.8786666,32.2666709 73.1960015,31.408 C73.5133364,30.549329 73.7466674,29.7280039 73.8960015,28.944 C74.2320032,27.4133257 74.4000015,25.5186779 74.4000015,23.26 L74.4000015,12.928 C74.4000015,12.2559966 74.5493334,11.7706681 74.8480015,11.472 C75.1466697,11.1733318 75.6133317,11.024 76.2480015,11.024 L86.0200015,11.024 C85.7960004,10.557331 85.5953357,10.1793348 85.4180015,9.88999998 C85.2406673,9.6006652 85.1100019,9.37200082 85.0260015,9.20399998 C84.9420011,9.03599914 84.9046681,8.90533378 84.9140015,8.81199998 C84.9233349,8.71866618 84.9933342,8.64400026 85.1240015,8.58799998 C85.3666694,8.38266562 85.5813339,8.38266562 85.7680015,8.58799998 C85.8613353,8.66266702 86.0946663,9.02666338 86.4680015,9.67999998 C86.6546691,9.9973349 86.804001,10.2679989 86.9160015,10.492 C87.0280021,10.7160011 87.1120012,10.8933327 87.1680015,11.024 Z M93.2440015,17.156 L93.2440015,19.452 C93.2440015,20.3666712 93.1413359,20.9546653 92.9360015,21.216 C92.7306672,21.4773346 92.1613395,21.608 91.2280015,21.608 L82.4360015,21.608 C81.4839968,21.5706665 80.8960026,21.4400011 80.6720015,21.216 C80.4106669,20.9546653 80.2800015,20.3666712 80.2800015,19.452 L80.2800015,17.156 L76.5560015,17.156 C76.3133336,17.156 76.1920015,16.9786684 76.1920015,16.624 C76.1920015,16.2506648 76.3320001,16.064 76.6120015,16.064 L80.2800015,16.064 L80.2800015,13.376 C80.2800015,13.0399983 80.4200001,12.872 80.7000015,12.872 C80.9800029,12.872 81.1620011,12.9046663 81.2460015,12.97 C81.3300019,13.0353336 81.3720015,13.1706656 81.3720015,13.376 L81.3720015,16.064 L92.1800015,16.064 L92.1800015,13.376 C92.142668,13.2079991 92.1846676,13.0773338 92.3060015,12.984 C92.4273355,12.8906662 92.5626674,12.844 92.7120015,12.844 C92.8613356,12.844 92.9966676,12.8906662 93.1180015,12.984 C93.2393355,13.0773338 93.281335,13.2079991 93.2440015,13.376 L93.2440015,16.064 L96.9400015,16.064 C97.2386697,16.064 97.3880015,16.2506648 97.3880015,16.624 C97.3880015,16.9786684 97.2386697,17.156 96.9400015,17.156 L93.2440015,17.156 Z M81.3720015,17.156 L81.3720015,19.424 C81.3720015,20.1706704 81.6893317,20.544 82.3240015,20.544 L91.2280015,20.544 C91.6200035,20.544 91.8766676,20.4600008 91.9980015,20.292 C92.1193355,20.1239991 92.1800015,19.8253355 92.1800015,19.396 L92.1800015,17.156 L81.3720015,17.156 Z M79.0760015,25.108 L78.3760015,25.108 C78.0773334,25.108 77.9280015,24.9400017 77.9280015,24.604 C77.9280015,24.2306648 78.0773334,24.044 78.3760015,24.044 L93.2720015,24.044 C93.7200038,24.044 94.0746669,24.1186659 94.3360015,24.268 C94.5973362,24.4173341 94.784001,24.6039989 94.8960015,24.828 C95.0080021,25.0520011 95.045335,25.2946653 95.0080015,25.556 C94.970668,25.8173346 94.8866688,26.0599989 94.7560015,26.284 C94.6626677,26.4333341 94.5180025,26.6246655 94.3220015,26.858 C94.1260005,27.0913345 93.8693364,27.3759983 93.5520015,27.712 C92.9359984,28.3653366 92.1893392,29.02333 91.3120015,29.686 C90.4346638,30.34867 89.4080074,30.9786637 88.2320015,31.576 C89.7440091,32.1733363 91.2326609,32.6586648 92.6980015,33.032 C94.1633422,33.4053352 95.614661,33.6666659 97.0520015,33.816 C97.556004,33.8720003 97.8080015,34.0866648 97.8080015,34.46 C97.8080015,34.8333352 97.5466708,35.02 97.0240015,35.02 C96.445332,35.02 95.2226775,34.8053355 93.3560015,34.376 C91.5639926,33.9653313 89.4266806,33.2373385 86.9440015,32.192 C84.8159909,33.125338 82.6133462,33.8346642 80.3360015,34.32 C78.1333238,34.786669 76.5560063,35.02 75.6040015,35.02 C75.174666,35.02 74.9600015,34.8520017 74.9600015,34.516 C74.9600015,34.1799983 75.2586652,33.9840003 75.8560015,33.928 C77.7040108,33.7413324 79.4399934,33.4566686 81.0640015,33.074 C82.6880096,32.6913314 84.218661,32.2013363 85.6560015,31.604 C84.2559945,30.8386628 82.8466753,29.6906743 81.4280015,28.16 C80.0279945,26.6106589 79.2440024,25.5933357 79.0760015,25.108 Z M86.9440015,31.016 C89.0346786,30.0453285 90.6866621,28.9813391 91.9000015,27.824 C93.0946742,26.6853276 93.6920015,25.9293352 93.6920015,25.556 C93.6920015,25.2573318 93.1413404,25.108 92.0400015,25.108 L80.3360015,25.108 C82.3893451,27.8520137 84.5919898,29.8213273 86.9440015,31.016 Z" id="有度" fill="#444444"></path>
            </g>
        </g>
    </g>
</svg>